:SAMPLES-PER-SECOND 30
:FULLY-SPECIFIED
:DEGREES
328
root  -0.598805 33.6394 -4.28963 0.307829 38.0445 -5.97798
LeftUpLeg  -13.3408 -1.96769 18.4576
LeftLeg  10.0689 -2.8175 -0.316423
LeftFoot  11.0539 0.0543901 -0.608503
LeftToes  -33.3981 8.556e-007 1.17171e-007
Spine  2.44724 1.50154 3.36181
Spine1  4.84549 2.94619 6.56684
RightShoulder  0.114006 6.21691 8.5305
RightArm  -35.2143 -18.1382 67.1197
RightForeArm  32.6401 14.1386 2.53947
RightHand  1.07162 -13.3339 -8.77444
LeftShoulder1  0.0180425 1.49315 -9.69124
LeftArm  -15.7214 15.5228 -73.3935
LeftForeArm  27.4601 -18.9907 -3.47209
LeftHand  0.12383 5.02143 2.70935
HEad  -15.4326 39.4965 -11.8826
RightUpLeg  -9.2629 -10.122 7.2086
RightLeg  13.7669 4.08994 0.727731
RightFoot  -2.63743 -0.0110165 -0.191057
RightToes  -26.9456 -0.127312 -0.234465
329
root  -0.614594 33.6374 -4.29676 0.31061 37.9332 -5.99945
LeftUpLeg  -13.358 -1.91219 18.4997
LeftLeg  10.114 -2.76621 -0.312896
LeftFoot  11.0582 0.053657 -0.597109
LeftToes  -33.4167 8.556e-007 1.17171e-007
Spine  2.44429 1.53781 3.39626
Spine1  4.84137 3.03475 6.6124
RightShoulder  0.114505 6.19613 8.5012
RightArm  -34.9132 -17.5615 66.9744
RightForeArm  31.9917 14.5945 2.62544
RightHand  1.07227 -13.3327 -8.78084
LeftShoulder1  0.0180425 1.46708 -9.67847
LeftArm  -15.6285 15.3725 -73.4231
LeftForeArm  27.3638 -19.2178 -3.51697
LeftHand  0.125394 4.94605 2.76125
HEad  -15.1246 39.6012 -11.806
RightUpLeg  -9.31117 -10.1413 7.24988
RightLeg  13.7915 4.22047 0.752758
RightFoot  -2.63352 -0.0106982 -0.196001
RightToes  -26.8817 -0.127312 -0.234465
330
root  -0.6283 33.6357 -4.30071 0.313798 37.8635 -6.00921
LeftUpLeg  -13.3764 -1.87026 18.526
LeftLeg  10.1575 -2.73395 -0.311371
LeftFoot  11.0447 0.0530749 -0.588062
LeftToes  -33.4318 8.556e-007 1.17171e-007
Spine  2.44133 1.5677 3.41561
Spine1  4.83356 3.1128 6.62678
RightShoulder  0.114963 6.18789 8.46603
RightArm  -34.7634 -16.9437 66.9003
RightForeArm  31.4565 15.1225 2.7253
RightHand  1.0583 -13.2888 -8.69205
LeftShoulder1  0.0180425 1.43946 -9.67171
LeftArm  -15.5318 15.2119 -73.4159
LeftForeArm  27.2487 -19.5519 -3.58325
LeftHand  0.124803 4.93868 2.69665
HEad  -14.9099 39.7183 -11.6984
RightUpLeg  -9.32658 -10.1689 7.2812
RightLeg  13.763 4.31408 0.767209
RightFoot  -2.59237 -0.010668 -0.196469
RightToes  -27.0073 -0.127312 -0.234465
331
root  -0.643155 33.6361 -4.30256 0.317926 37.8209 -6.02105
LeftUpLeg  -13.3602 -1.88962 18.5618
LeftLeg  10.0999 -2.67135 -0.301548
LeftFoot  11.095 0.0522588 -0.57538
LeftToes  -33.4322 8.556e-007 1.17171e-007
Spine  2.4411 1.59799 3.42713
Spine1  4.82338 3.19186 6.62795
RightShoulder  0.11541 6.14053 8.4317
RightArm  -34.5519 -16.3407 66.8837
RightForeArm  30.8629 15.7838 2.85104
RightHand  1.04829 -13.1878 -8.67571
LeftShoulder1  0.0180425 1.43405 -9.66715
LeftArm  -15.4052 15.0426 -73.4066
LeftForeArm  27.1794 -19.8958 -3.65173
LeftHand  0.126233 4.83422 2.70248
HEad  -14.7245 39.7665 -11.5676
RightUpLeg  -9.34663 -10.1831 7.31725
RightLeg  13.7419 4.3649 0.774569
RightFoot  -2.56693 -0.0107686 -0.194907
RightToes  -27.0099 -0.127312 -0.234465
332
root  -0.650471 33.6372 -4.29751 0.301277 37.8329 -6.04707
LeftUpLeg  -13.3199 -1.88558 18.5933
LeftLeg  10.0033 -2.68222 -0.298185
LeftFoot  11.1479 0.0523286 -0.576464
LeftToes  -33.4317 8.556e-007 1.17171e-007
Spine  2.43924 1.61224 3.4419
Spine1  4.82984 3.236 6.64029
RightShoulder  0.115841 6.0456 8.37613
RightArm  -33.6419 -15.7544 66.8373
RightForeArm  29.7889 16.5348 2.99509
RightHand  1.04445 -13.1701 -8.65481
LeftShoulder1  0.0180425 1.43687 -9.67759
LeftArm  -15.2167 14.8736 -73.3976
LeftForeArm  26.993 -20.2744 -3.72754
LeftHand  0.125989 4.86607 2.71853
HEad  -14.586 39.7789 -11.41
RightUpLeg  -9.33122 -10.1919 7.35025
RightLeg  13.7104 4.37198 0.773352
RightFoot  -2.54905 -0.0109199 -0.192558
RightToes  -26.9653 -0.127312 -0.234465
333
root  -0.657758 33.6381 -4.29068 0.306151 37.8737 -6.03796
LeftUpLeg  -13.2781 -1.87111 18.5965
LeftLeg  9.88195 -2.73979 -0.298669
LeftFoot  11.2213 0.0530452 -0.587601
LeftToes  -33.4406 8.556e-007 1.17171e-007
Spine  2.42979 1.62845 3.44071
Spine1  4.81165 3.28245 6.62567
RightShoulder  0.11623 5.99398 8.31196
RightArm  -33.4088 -15.2167 66.8985
RightForeArm  29.3948 17.1756 3.11861
RightHand  1.02868 -13.0221 -8.62062
LeftShoulder1  0.0180425 1.43233 -9.6934
LeftArm  -15.1383 14.7004 -73.3899
LeftForeArm  26.8923 -20.5498 -3.78291
LeftHand  0.126613 4.80038 2.69707
HEad  -14.4682 39.7746 -11.2816
RightUpLeg  -9.32586 -10.1709 7.36054
RightLeg  13.6987 4.31041 0.761587
RightFoot  -2.56 -0.0111459 -0.189048
RightToes  -26.8764 -0.127312 -0.234465
